<?xml version="1.0" standalone="no"?>
<!DOCTYPE svg PUBLIC "-//W3C//DTD SVG 20010904//EN"
 "http://www.w3.org/TR/2001/REC-SVG-20010904/DTD/svg10.dtd">
<svg version="1.0" xmlns="http://www.w3.org/2000/svg"
 width="1000.000000pt" height="1000.000000pt" viewBox="0 0 1000.000000 1000.000000"
 preserveAspectRatio="xMidYMid meet">
<metadata>
Created by potrace 1.14, written by Peter Selinger 2001-2017
</metadata>
<g transform="translate(0.000000,1000.000000) scale(0.100000,-0.100000)"
fill="#000000" stroke="none">
<path d="M2620 4995 l0 -2885 665 0 665 0 2 948 3 947 810 6 c887 6 872 5
1135 70 511 126 981 475 1245 924 71 121 104 196 153 347 159 489 108 1059
-134 1490 -143 255 -378 503 -649 685 -209 141 -485 254 -750 308 -211 43
-282 45 -1747 45 l-1398 0 0 -2885z"/>
</g>
</svg>
